# xmcd
#
# Track frame offsets: 
#        150
#        15082
#        31035
#        47145
#        59010
#        76992
#        99067
#        114682
#        129917
#        142685
#        157115
#        172630
#        183045
#        195417
#        211767
#
# Disc length: 3015 seconds
#
# Revision: 0
# Processed by: cddbd v1.5.2PL0 Copyright (c) Steve Scherf et al.
# Submitted via: ExactAudioCopyFreeDBPlugin 1.0
#
DISCID=a60bc50f
DTITLE=Various Artist - 電視劇主題曲精華一
DYEAR=1900
DGENRE=Pop
TTITLE0=張德蘭 - 網中人
TTITLE1=葉德嫻 - 真愛是尋覓得到
TTITLE2=徐小明 - 霍東閣
TTITLE3=張德蘭 - 武俠帝女花
TTITLE4=張南雁 - 眞假隔一線
TTITLE5=劉德華 - 神鵰大俠--南音
TTITLE6=柳影紅 - 願你走快步
TTITLE7=張德蘭 - 情義兩心堅
TTITLE8=徐小鳳 - 神鳳
TTITLE9=張偉文 - 大内群英II
TTITLE10=張德蘭 - 風塵淚
TTITLE11=景黛音 - 問三聲
TTITLE12=張眀敏 - 勇者無懼
TTITLE13=葉振棠 - 心中的血
TTITLE14=張德蘭 - 昨天我眞的愛你
EXTD=
EXTT0=
EXTT1=
EXTT2=
EXTT3=
EXTT4=
EXTT5=
EXTT6=
EXTT7=
EXTT8=
EXTT9=
EXTT10=
EXTT11=
EXTT12=
EXTT13=
EXTT14=
PLAYORDER=
